# xmcd
#
# Track frame offsets: 
#        150
#        11770
#        42930
#        46875
#        74072
#        83545
#        104755
#        143435
#        167690
#        178320
#        196250
#        205852
#        214372
#        226372
#        236807
#        248047
#        256097
#        286307
#
# Disc length: 4178 seconds
#
# Revision: 2
# Processed by: cddbd v1.5.2PL0 Copyright (c) Steve Scherf et al.
# Submitted via: ExactAudioCopy v0.99pb5
#
DISCID=06105012
DTITLE=Various Artist - Historische Orgel in Nederland, het  cd 02 - Leiden, 
DTITLE=Amsterdam, Haarlem, Leiden
DYEAR=2000
DGENRE=Orgel
TTITLE0=Sweelinck - Toccata in a · Pieterskerk Leiden · Leo van Doesel
TTITLE0=aar
TTITLE1=Schuyt - Padovano et Gagliarda del sesto modo a 6 · Pietersker
TTITLE1=k Leiden · Leo van Doeselaar
TTITLE2=Eryträus - In dich hab ich gehoffet, Herr · Nieuwe Kerk Amster
TTITLE2=dam · Bernard Winsemius
TTITLE3=Tunder - In dich hab ich gehoffet, Herr · Nieuwe Kerk Amsterda
TTITLE3=m · Bernard Winsemius
TTITLE4=Scheidt - Komm, Heiliger Geist, Herre Gott · Nieuwe Kerk Amste
TTITLE4=rdam · Bernard Winsemius
TTITLE5=Weckmann - Komm, Heiliger Geist, Herre Gott · Nieuwe Kerk Amst
TTITLE5=erdam · Bernard Winsemius
TTITLE6=Sweelinck - Poolse almande · Nieuwe Kerk Amsterdam · Bernard W
TTITLE6=insemius
TTITLE7=Van den Kerckhoven - Preludium en fuga in d · Nieuwe Kerk Haar
TTITLE7=lem · Haite van der Schaaf
TTITLE8=Speuy - Psalm 100: Chy Volckeren des Aertrijkcx al - Anonymus 
TTITLE8=(Soldt Manuscript): Den 100 sallem
TTITLE9=Purcell - Voluntary on The Old 100th - John Blow - The Old Hun
TTITLE9=dreth · Nieuwe Kerk Haarlem · Haite van der Schaaf
TTITLE10=Van Noordt - Psalm 24, vers 1 · Nieuwe Kerk Haarlem · Haite v
TTITLE10=an der Schaaf
TTITLE11=Van Noordt - Psalm 24, vers 2 · Nieuwe Kerk Haarlem · Haite v
TTITLE11=an der Schaaf
TTITLE12=Van Noordt - Psalm 24, vers 3 · Nieuwe Kerk Haarlem · Haite v
TTITLE12=an der Schaaf
TTITLE13=Scheidemann - Vater unser im Himmelreich, versus 1 · Hoogland
TTITLE13=se Kerk, Leiden · Jaco van Leeuwen
TTITLE14=Scheidemann - Vater unser im Himmelreich, versus 2 · Hoogland
TTITLE14=se Kerk, Leiden · Jaco van Leeuwen
TTITLE15=Scheidemann - Vater unser im Himmelreich, versus 3 · Hoogland
TTITLE15=se Kerk, Leiden · Jaco van Leeuwen
TTITLE16=De Neufville - Aira Prima · Hooglandse Kerk, Leiden · Jaco va
TTITLE16=n Leeuwen
TTITLE17=Bach - Praeludium in a, BWV 569 · Hooglandse Kerk, Leiden · J
TTITLE17=aco van Leeuwen
EXTD=YEAR: 2000 ID3G:   0
EXTT0=
EXTT1=
EXTT2=
EXTT3=
EXTT4=
EXTT5=
EXTT6=
EXTT7=
EXTT8=
EXTT9=
EXTT10=
EXTT11=
EXTT12=
EXTT13=
EXTT14=
EXTT15=
EXTT16=
EXTT17=
PLAYORDER=
